<?xml version="1.0" encoding="utf-8"?>
<!-- Generator: Adobe Illustrator 21.1.0, SVG Export Plug-In . SVG Version: 6.00 Build 0)  -->
<svg version="1.1" id="Layer_1" xmlns="http://www.w3.org/2000/svg" xmlns:xlink="http://www.w3.org/1999/xlink" x="0px" y="0px"
	 viewBox="0 0 10 10" style="enable-background:new 0 0 10 10;" xml:space="preserve">
<style type="text/css">
	.st0{fill:#3982D8;}
	.st1{fill:#246FBA;}
	.st2{fill:#FFFFFF;}
</style>
<g>
	<circle class="st0" cx="5" cy="5" r="5"/>
	<path class="st1" d="M9.5,7.1l-3-3.9L2.3,7.9l1.5,1.9C4.2,9.9,4.6,10,5,10C7,10,8.7,8.8,9.5,7.1z"/>
	<path class="st2" d="M5.9,4.9c0.4-0.3,0.7-0.8,0.7-1.3c0-0.9-0.7-1.6-1.6-1.6c-0.9,0-1.6,0.7-1.6,1.6c0,0.5,0.3,1,0.7,1.3
		C3,5.3,2.3,6.3,2.3,7.5c0,0,0,0.4,0,0.4h5.4c0,0,0-0.4,0-0.4C7.7,6.3,7,5.3,5.9,4.9z"/>
</g>
</svg>
