<?xml version="1.0" encoding="utf-8"?>
<!-- Generator: Adobe Illustrator 21.1.0, SVG Export Plug-In . SVG Version: 6.00 Build 0)  -->
<svg version="1.1" id="Layer_1" xmlns="http://www.w3.org/2000/svg" xmlns:xlink="http://www.w3.org/1999/xlink" x="0px" y="0px"
	 viewBox="0 0 20 25" style="enable-background:new 0 0 20 25;" xml:space="preserve">
<style type="text/css">
	.st0{fill:#DC403C;}
</style>
<g>
	<g>
		<path class="st0" d="M18,7.3H2c-1.1,0-2-0.9-2-2.1s0.9-2.1,2-2.1H18c1.1,0,2,0.9,2,2.1S19.1,7.3,18,7.3z M2,4.2
			C1.5,4.2,1,4.7,1,5.2S1.5,6.3,2,6.3H18c0.6,0,1.1-0.5,1.1-1.1S18.5,4.2,18,4.2H2z"/>
	</g>
	<g>
		<path class="st0" d="M14.7,4.2H5.3V2.3C5.3,1,6.3,0,7.6,0h4.8c1.3,0,2.3,1,2.3,2.3V4.2z M6.3,3.2h7.4V2.3c0-0.7-0.6-1.3-1.3-1.3
			H7.6C6.9,1,6.3,1.6,6.3,2.3V3.2z"/>
	</g>
	<g>
		<path class="st0" d="M15.1,25H4.9c-1.7,0-3.2-1.4-3.2-3.2V6.3h16.5v15.5C18.3,23.6,16.8,25,15.1,25z M2.7,7.3v14.5
			c0,1.2,1,2.2,2.2,2.2h10.2c1.2,0,2.2-1,2.2-2.2V7.3H2.7z"/>
	</g>
	<g>
		<g>
			<path class="st0" d="M6.4,21.9c-0.3,0-0.5-0.2-0.5-0.5V9.9c0-0.3,0.2-0.5,0.5-0.5s0.5,0.2,0.5,0.5v11.6
				C6.9,21.7,6.7,21.9,6.4,21.9z"/>
		</g>
		<g>
			<path class="st0" d="M10,21.9c-0.3,0-0.5-0.2-0.5-0.5V9.9c0-0.3,0.2-0.5,0.5-0.5s0.5,0.2,0.5,0.5v11.6
				C10.5,21.7,10.3,21.9,10,21.9z"/>
		</g>
		<g>
			<path class="st0" d="M13.6,21.9c-0.3,0-0.5-0.2-0.5-0.5V9.9c0-0.3,0.2-0.5,0.5-0.5c0.3,0,0.5,0.2,0.5,0.5v11.6
				C14.1,21.7,13.9,21.9,13.6,21.9z"/>
		</g>
	</g>
</g>
</svg>
