<?xml version="1.0" encoding="utf-8"?>
<!-- Generator: Adobe Illustrator 21.1.0, SVG Export Plug-In . SVG Version: 6.00 Build 0)  -->
<svg version="1.1" id="Layer_1" xmlns="http://www.w3.org/2000/svg" xmlns:xlink="http://www.w3.org/1999/xlink" x="0px" y="0px"
	 viewBox="0 0 10 10" style="enable-background:new 0 0 10 10;" xml:space="preserve">
<style type="text/css">
	.st0{fill:#333333;}
</style>
<path class="st0" d="M9.8,8.9l-2.1-2c0.6-0.7,1-1.7,1-2.7c0-2.3-2-4.2-4.4-4.2S0,1.9,0,4.2s2,4.2,4.4,4.2c0.9,0,1.7-0.3,2.4-0.7
	l2.1,2.1C9,9.9,9.2,10,9.3,10c0.2,0,0.3-0.1,0.5-0.2C10.1,9.6,10.1,9.2,9.8,8.9z M1.3,4.2c0-1.6,1.4-3,3.1-3s3.1,1.3,3.1,3
	s-1.4,3-3.1,3S1.3,5.9,1.3,4.2z"/>
</svg>
