<?xml version="1.0" encoding="utf-8"?>
<!-- Generator: Adobe Illustrator 21.1.0, SVG Export Plug-In . SVG Version: 6.00 Build 0)  -->
<svg version="1.1" id="Layer_1" xmlns="http://www.w3.org/2000/svg" xmlns:xlink="http://www.w3.org/1999/xlink" x="0px" y="0px"
	 viewBox="0 0 16 14" style="enable-background:new 0 0 16 14;" xml:space="preserve">
<style type="text/css">
	.st0{fill:#0867BB;}
</style>
<g>
	<ellipse class="st0" cx="7.5" cy="8.5" rx="0.6" ry="0.6"/>
	<path class="st0" d="M15.2,5.5H15V0.9C15,0.4,14.6,0,14.1,0H0.9C0.4,0,0,0.4,0,0.9v8.6c0,0.5,0.4,0.9,0.9,0.9h4.8
		c-0.1,0.7-0.5,1-0.6,1.1H4c-0.4,0-0.7,0.3-0.7,0.6v1.3l6,0.1c0.1,0.3,0.5,0.5,0.8,0.5h4.9c0.5,0,0.9-0.4,0.9-0.9V6.4
		C16.1,5.9,15.7,5.5,15.2,5.5z M1,7.6h8.3v1.8H1V7.6z M6.6,10.4h2.7v1.1H6.2C6.4,11.2,6.5,10.8,6.6,10.4z M4.2,12.3h5.1v0.5
		l-5.1-0.1C4.2,12.7,4.2,12.3,4.2,12.3z M9.3,6.4v0.2H1V1h13v4.6h-3.7C9.8,5.5,9.3,5.9,9.3,6.4z M15.1,13.1h-4.7V6.5h4.7V13.1z"/>
	<path class="st0" d="M11.4,8.7H14c0.2,0,0.4-0.2,0.4-0.4S14.2,7.9,14,7.9h-2.6c-0.2,0-0.4,0.2-0.4,0.4S11.2,8.7,11.4,8.7z"/>
	<path class="st0" d="M11.4,10.3H14c0.2,0,0.4-0.2,0.4-0.4S14.2,9.5,14,9.5h-2.6c-0.2,0-0.4,0.2-0.4,0.4S11.2,10.3,11.4,10.3z"/>
	<path class="st0" d="M11.4,11.8H14c0.2,0,0.4-0.2,0.4-0.4c0-0.2-0.2-0.4-0.4-0.4h-2.6c-0.2,0-0.4,0.2-0.4,0.4
		C11,11.6,11.2,11.8,11.4,11.8z"/>
</g>
</svg>
