<?xml version="1.0" encoding="utf-8"?>
<!-- Generator: Adobe Illustrator 21.1.0, SVG Export Plug-In . SVG Version: 6.00 Build 0)  -->
<svg version="1.1" id="Layer_1" xmlns="http://www.w3.org/2000/svg" xmlns:xlink="http://www.w3.org/1999/xlink" x="0px" y="0px"
	 viewBox="0 0 16 13" style="enable-background:new 0 0 16 13;" xml:space="preserve">
<style type="text/css">
	.st0{fill:#0867BB;}
</style>
<g>
	<path class="st0" d="M4.8,8.2l1-1c0.2-0.2,0.2-0.5,0-0.7L5.4,6C5.2,5.8,4.9,5.8,4.7,6L2.9,7.8C2.7,8,2.7,8.3,2.9,8.5l1.8,1.8
		c0.1,0.1,0.2,0.1,0.4,0.1c0.1,0,0.3,0,0.4-0.1l0.4-0.4c0.2-0.2,0.2-0.5,0-0.7L4.8,8.2z M5.1,9.8L3.4,8.2l1.7-1.6l0.3,0.3L4.2,7.9
		C4.2,8,4.1,8.1,4.1,8.2c0,0.1,0,0.2,0.1,0.3l1.1,1.1L5.1,9.8z"/>
	<path class="st0" d="M11.3,6c-0.2-0.2-0.5-0.2-0.7,0l-0.4,0.4c-0.2,0.2-0.2,0.5,0,0.7l1,1l-1,1c-0.2,0.2-0.2,0.5,0,0.7l0.4,0.4
		c0.1,0.1,0.2,0.1,0.4,0.1c0.1,0,0.3,0,0.4-0.1l1.8-1.8c0.2-0.2,0.2-0.5,0-0.7L11.3,6z M10.9,9.8l-0.3-0.3l1.1-1.1
		c0.2-0.2,0.2-0.4,0-0.6l-1.1-1.1l0.3-0.3l1.7,1.6L10.9,9.8z"/>
	<path class="st0" d="M9.3,6.2L9,6C8.8,5.9,8.7,5.9,8.5,6C8.4,6,8.2,6.1,8.2,6.3L6.6,9.4c-0.1,0.1-0.1,0.3,0,0.4
		c0.1,0.1,0.2,0.3,0.3,0.3l0.4,0.2h0c0.1,0,0.2,0.1,0.3,0.1c0.2,0,0.4-0.1,0.5-0.3l1.6-3.2c0.1-0.1,0.1-0.3,0-0.4
		C9.6,6.3,9.5,6.2,9.3,6.2z M7.5,9.8L7.2,9.7l1.5-3.1l0.3,0.2L7.5,9.8z"/>
	<path class="st0" d="M15.5,0H0.5C0.2,0,0,0.2,0,0.5v11.9C0,12.8,0.2,13,0.5,13h14.9c0.3,0,0.5-0.2,0.5-0.5V0.5
		C16,0.2,15.8,0,15.5,0z M15.2,0.8v2.7H0.8V0.8H15.2z M0.8,12.2V4.3h14.4v7.9H0.8z"/>
	<ellipse class="st0" cx="2.1" cy="2.1" rx="0.4" ry="0.4"/>
	<ellipse class="st0" cx="3.6" cy="2.1" rx="0.4" ry="0.4"/>
	<ellipse class="st0" cx="5.2" cy="2.1" rx="0.4" ry="0.4"/>
	<path class="st0" d="M7,2.5h6.8c0.2,0,0.4-0.2,0.4-0.4c0-0.2-0.2-0.4-0.4-0.4H7c-0.2,0-0.4,0.2-0.4,0.4C6.6,2.4,6.8,2.5,7,2.5z"/>
</g>
</svg>
