<?xml version="1.0" encoding="utf-8"?>
<!-- Generator: Adobe Illustrator 21.1.0, SVG Export Plug-In . SVG Version: 6.00 Build 0)  -->
<svg version="1.1" id="Layer_1" xmlns="http://www.w3.org/2000/svg" xmlns:xlink="http://www.w3.org/1999/xlink" x="0px" y="0px"
	 viewBox="0 0 20 6.6" style="enable-background:new 0 0 20 6.6;" xml:space="preserve">
<style type="text/css">
	.st0{fill:#034EA2;}
	.st1{fill:#FFFFFF;}
</style>
<g>
	<g>
		<g>
			<path class="st0" d="M20,1.6c0.3,1.6-4,3.6-9.5,4.6C5,7.1,0.3,6.6,0,5.1c-0.3-1.6,4-3.6,9.5-4.6C15-0.5,19.7,0,20,1.6z"/>
		</g>
		<g>
			<g>
				<polygon class="st1" points="14.8,3.9 14.8,2.3 15.3,2.3 15.3,4.3 14.5,4.3 14,2.6 14,2.6 14.1,4.3 13.5,4.3 13.5,2.3 14.3,2.3 
					14.8,3.9 				"/>
				<polygon class="st1" points="5.5,2.5 5.2,4.3 4.6,4.3 5,2.3 6,2.3 6.3,4.3 5.8,4.3 5.5,2.5 				"/>
				<polygon class="st1" points="7.9,3.9 8.2,2.3 9,2.3 9,4.3 8.5,4.3 8.5,2.5 8.5,2.5 8.2,4.3 7.6,4.3 7.3,2.5 7.3,2.5 7.3,4.3 
					6.7,4.3 6.8,2.3 7.6,2.3 7.9,3.9 				"/>
				<path class="st1" d="M3.8,3.8c0,0.1,0,0.1,0,0.2c0,0.1-0.1,0.1-0.2,0.1C3.5,4.1,3.4,4,3.4,3.9V3.7H2.8l0,0.2
					c0,0.5,0.4,0.6,0.8,0.6c0.4,0,0.7-0.1,0.7-0.5c0-0.2,0-0.3,0-0.3C4.2,3.2,3.4,3,3.4,2.8c0,0,0-0.1,0-0.1c0-0.1,0.1-0.1,0.2-0.1
					c0.1,0,0.2,0.1,0.2,0.2c0,0,0,0.1,0,0.1h0.5V2.7c0-0.5-0.4-0.5-0.7-0.5c-0.4,0-0.7,0.1-0.7,0.5c0,0.1,0,0.2,0,0.3
					C2.9,3.4,3.7,3.5,3.8,3.8z"/>
				<path class="st1" d="M10.5,3.8c0,0,0,0.1,0,0.2C10.5,4,10.4,4,10.3,4c-0.1,0-0.2-0.1-0.2-0.2l0-0.2H9.6l0,0.2
					c0,0.5,0.4,0.6,0.7,0.6c0.4,0,0.7-0.1,0.7-0.5c0-0.2,0-0.3,0-0.3c-0.1-0.4-0.9-0.6-0.9-0.8c0,0,0-0.1,0-0.1
					c0-0.1,0.1-0.1,0.2-0.1c0.1,0,0.2,0.1,0.2,0.2c0,0,0,0.1,0,0.1H11V2.7c0-0.4-0.4-0.5-0.7-0.5c-0.4,0-0.7,0.1-0.7,0.5
					c0,0.1,0,0.2,0,0.3C9.7,3.4,10.4,3.5,10.5,3.8z"/>
				<path class="st1" d="M12.2,4c0.1,0,0.2-0.1,0.2-0.2c0,0,0-0.1,0-0.1V2.3H13v1.5c0,0,0,0.1,0,0.1c0,0.4-0.3,0.5-0.7,0.5
					c-0.4,0-0.7-0.1-0.7-0.5c0,0,0-0.1,0-0.1V2.3H12v1.5c0,0,0,0.1,0,0.1C12.1,3.9,12.1,4,12.2,4z"/>
				<path class="st1" d="M16.6,4c0.1,0,0.2-0.1,0.2-0.1c0,0,0-0.1,0-0.1V3.5h-0.2V3.2h0.7v0.6c0,0,0,0.1,0,0.1
					c0,0.4-0.4,0.5-0.7,0.5c-0.4,0-0.7-0.1-0.7-0.5c0-0.1,0-0.1,0-0.1l0-0.9c0,0,0-0.1,0-0.1c0-0.4,0.4-0.5,0.7-0.5
					c0.4,0,0.7,0.1,0.7,0.5c0,0.1,0,0.1,0,0.1v0.1h-0.5V2.8c0,0,0,0,0-0.1c0,0,0-0.2-0.2-0.2c-0.2,0-0.2,0.1-0.2,0.2
					c0,0,0,0.1,0,0.1v0.9c0,0,0,0.1,0,0.1C16.4,3.9,16.4,4,16.6,4z"/>
			</g>
		</g>
	</g>
</g>
</svg>
