<?xml version="1.0" encoding="utf-8"?>
<!-- Generator: Adobe Illustrator 21.1.0, SVG Export Plug-In . SVG Version: 6.00 Build 0)  -->
<svg version="1.1" id="Layer_1" xmlns="http://www.w3.org/2000/svg" xmlns:xlink="http://www.w3.org/1999/xlink" x="0px" y="0px"
	 viewBox="0 0 20 14" style="enable-background:new 0 0 20 14;" xml:space="preserve">
<style type="text/css">
	.st0{fill:#C40452;}
	.st1{fill:#FFFFFF;}
</style>
<g>
	<circle class="st0" cx="10" cy="7" r="7"/>
	<polygon class="st1" points="9.8,4 9.8,10 11.6,10 11.6,9.6 10.2,9.6 10.2,4 	"/>
	<circle class="st1" cx="7.8" cy="4.8" r="0.8"/>
	<path class="st1" d="M10.2,1.2c-0.1,0-0.2,0-0.2,0C6.7,1.2,4.2,3.7,4.2,7c0,1.5,0.6,3,1.8,4.2c1.1,1,2.6,1.6,4.1,1.6s3-0.6,4.2-1.8
		c1-1,1.6-2.6,1.6-4.1V6.8h-0.2h-4v0.6h3.6v0.1c-0.2,2.8-2.5,4.9-5.3,4.9c-1.4,0-2.8-0.6-3.7-1.5C5.2,9.8,4.6,8.4,4.6,7
		s0.6-2.8,1.5-3.7c1.1-1,2.3-1.5,3.7-1.5c0.1,0,0.2,0,0.2,0V1.2H10.2z"/>
</g>
</svg>
