<?xml version="1.0" encoding="utf-8"?>
<!-- Generator: Adobe Illustrator 21.1.0, SVG Export Plug-In . SVG Version: 6.00 Build 0)  -->
<svg version="1.1" id="Layer_1" xmlns="http://www.w3.org/2000/svg" xmlns:xlink="http://www.w3.org/1999/xlink" x="0px" y="0px"
	 viewBox="0 0 20 14" style="enable-background:new 0 0 20 14;" xml:space="preserve">
<style type="text/css">
	.st0{fill:#FF6700;}
	.st1{fill:#FFFFFF;}
</style>
<g transform="matrix(.35278 0 0 -.35278 -186.45 261.78)">
	<g transform="matrix(1.4354 0 0 1.4355 -242.08 -126.56)">
		<path class="st0" d="M569.4,577.4h-25.5c-0.6,0-1,0.5-1,1V604c0,0.6,0.5,1,1,1h25.5c0.6,0,1-0.5,1-1v-25.5
			C570.4,577.9,570,577.4,569.4,577.4"/>
		<g>
			<path class="st1" d="M564.5,596.4h-2.2c-0.1,0-0.2-0.1-0.2-0.2v-9.9c0-0.1,0.1-0.2,0.2-0.2h2.2c0.1,0,0.2,0.1,0.2,0.2v9.9
				C564.6,596.3,564.5,596.4,564.5,596.4"/>
			<path class="st1" d="M557,596.4h-8.3c-0.1,0-0.2-0.1-0.2-0.2v-9.9c0-0.1,0.1-0.2,0.2-0.2h2.2c0.1,0,0.2,0.1,0.2,0.2v7.8
				c0,0.1,0.1,0.2,0.2,0.2h4.7c1.3,0,1.7-1,1.7-1.7v-6.3c0-0.1,0.1-0.2,0.2-0.2h2.2c0.1,0,0.2,0.1,0.2,0.2v7c0,0.6-0.1,1.4-0.8,2.2
				C558.5,596.3,557.8,596.4,557,596.4"/>
			<path class="st1" d="M555.5,592.4h-2.3c-0.1,0-0.2-0.1-0.2-0.2v-6c0-0.1,0.1-0.2,0.2-0.2h2.3c0.1,0,0.2,0.1,0.2,0.2v6
				C555.7,592.4,555.6,592.4,555.5,592.4"/>
		</g>
	</g>
</g>
</svg>
