<?xml version="1.0" encoding="utf-8"?>
<!-- Generator: Adobe Illustrator 21.1.0, SVG Export Plug-In . SVG Version: 6.00 Build 0)  -->
<svg version="1.1" id="Layer_1" xmlns="http://www.w3.org/2000/svg" xmlns:xlink="http://www.w3.org/1999/xlink" x="0px" y="0px"
	 viewBox="0 0 16 20" style="enable-background:new 0 0 16 20;" xml:space="preserve">
<style type="text/css">
	.st0{fill:#0867BB;}
</style>
<g>
	<g>
		<path class="st0" d="M13,20H3c-0.6,0-1-0.5-1-1.1V1.1C2,0.5,2.5,0,3,0h9.9C13.5,0,14,0.5,14,1.1V19C14,19.5,13.5,20,13,20z
			 M13,1.1H3.1V19H13V1.1z"/>
	</g>
	<g>
		<rect x="2.5" y="3.2" class="st0" width="10.9" height="1.1"/>
	</g>
	<g>
		<rect x="2.5" y="15.3" class="st0" width="10.9" height="1.1"/>
	</g>
	<g>
		<path class="st0" d="M8.8,2.7H7.2c-0.3,0-0.5-0.2-0.5-0.5s0.2-0.5,0.5-0.5h1.7c0.3,0,0.5,0.2,0.5,0.5S9.1,2.7,8.8,2.7z"/>
	</g>
	<g>
		<ellipse class="st0" cx="8.1" cy="17.6" rx="0.7" ry="0.7"/>
	</g>
</g>
</svg>
