<?xml version="1.0" encoding="utf-8"?>
<!-- Generator: Adobe Illustrator 21.1.0, SVG Export Plug-In . SVG Version: 6.00 Build 0)  -->
<svg version="1.1" id="Layer_1" xmlns="http://www.w3.org/2000/svg" xmlns:xlink="http://www.w3.org/1999/xlink" x="0px" y="0px"
	 viewBox="0 0 16 15" style="enable-background:new 0 0 16 15;" xml:space="preserve">
<style type="text/css">
	.st0{fill:#0867BB;}
</style>
<g>
	<path class="st0" d="M8.8,0.1C8.6,0,8.3,0,8.1,0.2l-4.7,4c-0.1,0-0.1,0-0.2,0H0.9C0.4,4.1,0,4.5,0,5V10c0,0.5,0.4,0.9,0.9,0.9h2.4
		c0,0,0,0,0.1,0l4.8,4C8.3,14.9,8.4,15,8.6,15c0.1,0,0.2,0,0.3-0.1c0.2-0.1,0.4-0.3,0.4-0.6V0.6C9.2,0.4,9,0.2,8.8,0.1z M0.9,5h2.4
		V10h0l0,0.5V10H0.9V5z M8.3,13.7l-4.1-3.4c0-0.1,0.1-0.2,0.1-0.4V5c0-0.1,0-0.2-0.1-0.3l4.1-3.5V13.7z"/>
	<path class="st0" d="M13.4,7.5c0-1.6-1.1-3.1-2.7-3.5c-0.3-0.1-0.5,0.1-0.6,0.3c-0.1,0.2,0.1,0.5,0.3,0.6c1.2,0.3,2,1.4,2,2.6
		c0,1.1-0.7,2.2-1.8,2.5c-0.2,0.1-0.4,0.3-0.3,0.6c0.1,0.2,0.2,0.3,0.4,0.3c0,0,0.1,0,0.1,0C12.4,10.4,13.4,9,13.4,7.5z"/>
	<path class="st0" d="M11.4,1.7c-0.3-0.1-0.5,0.1-0.6,0.3c-0.1,0.2,0.1,0.5,0.3,0.6c2.3,0.6,3.9,2.6,3.9,4.9c0,2.2-1.4,4.1-3.5,4.8
		c-0.2,0.1-0.4,0.3-0.3,0.6c0.1,0.2,0.2,0.3,0.4,0.3c0,0,0.1,0,0.1,0c2.5-0.8,4.2-3.1,4.2-5.7C16,4.8,14.1,2.4,11.4,1.7z"/>
</g>
</svg>
