<?xml version="1.0" encoding="utf-8"?>
<!-- Generator: Adobe Illustrator 21.1.0, SVG Export Plug-In . SVG Version: 6.00 Build 0)  -->
<svg version="1.1" id="Layer_1" xmlns="http://www.w3.org/2000/svg" xmlns:xlink="http://www.w3.org/1999/xlink" x="0px" y="0px"
	 viewBox="0 0 16 18" style="enable-background:new 0 0 16 18;" xml:space="preserve">
<style type="text/css">
	.st0{fill:#0867BB;}
</style>
<g>
	<path class="st0" d="M14,18H2c-0.5,0-1-0.4-1-1V1c0-0.5,0.4-1,1-1h12c0.5,0,1,0.4,1,1v16C15,17.6,14.6,18,14,18z M2,0.9
		C1.9,0.9,1.9,0.9,2,0.9L1.9,17c0,0,0,0.1,0.1,0.1h12c0,0,0.1,0,0.1-0.1V1c0,0,0-0.1-0.1-0.1H2z"/>
</g>
<g>
	<g>
		<path class="st0" d="M12.2,5.6H3.8c-0.3,0-0.5-0.2-0.5-0.5s0.2-0.5,0.5-0.5h8.3c0.3,0,0.5,0.2,0.5,0.5S12.4,5.6,12.2,5.6z"/>
	</g>
	<g>
		<path class="st0" d="M12.2,9.5H3.8C3.6,9.5,3.4,9.3,3.4,9s0.2-0.5,0.5-0.5h8.3c0.3,0,0.5,0.2,0.5,0.5S12.4,9.5,12.2,9.5z"/>
	</g>
	<g>
		<path class="st0" d="M12.2,13.3H3.8c-0.3,0-0.5-0.2-0.5-0.5s0.2-0.5,0.5-0.5h8.3c0.3,0,0.5,0.2,0.5,0.5S12.4,13.3,12.2,13.3z"/>
	</g>
</g>
</svg>
