<?xml version="1.0" encoding="utf-8"?>
<!-- Generator: Adobe Illustrator 21.1.0, SVG Export Plug-In . SVG Version: 6.00 Build 0)  -->
<svg version="1.1" id="Layer_1" xmlns="http://www.w3.org/2000/svg" xmlns:xlink="http://www.w3.org/1999/xlink" x="0px" y="0px"
	 viewBox="0 0 16 15" style="enable-background:new 0 0 16 15;" xml:space="preserve">
<style type="text/css">
	.st0{fill:#0867BB;}
</style>
<g>
	<g>
		<path class="st0" d="M15.3,12.5H0.7c-0.4,0-0.7-0.3-0.7-0.7V0.7C0,0.3,0.3,0,0.7,0h14.6C15.7,0,16,0.3,16,0.7v11.1
			C16,12.2,15.7,12.5,15.3,12.5z M1,11.4H15V1.1H1V11.4z"/>
	</g>
	<g>
		<path class="st0" d="M15.5,9.9h-15C0.2,9.9,0,9.7,0,9.4s0.2-0.5,0.5-0.5h15c0.3,0,0.5,0.2,0.5,0.5S15.8,9.9,15.5,9.9z"/>
	</g>
	<g>
		<g>
			<path class="st0" d="M6.3,14.9c-0.3,0-0.5-0.2-0.5-0.5V12c0-0.3,0.2-0.5,0.5-0.5c0.3,0,0.5,0.2,0.5,0.5v2.4
				C6.8,14.7,6.6,14.9,6.3,14.9z"/>
		</g>
		<g>
			<path class="st0" d="M9.7,14.9c-0.3,0-0.5-0.2-0.5-0.5V12c0-0.3,0.2-0.5,0.5-0.5s0.5,0.2,0.5,0.5v2.4C10.2,14.7,10,14.9,9.7,14.9
				z"/>
		</g>
	</g>
	<g>
		<path class="st0" d="M11.9,15H4.1c-0.3,0-0.5-0.2-0.5-0.5s0.2-0.5,0.5-0.5h7.8c0.3,0,0.5,0.2,0.5,0.5S12.2,15,11.9,15z"/>
	</g>
</g>
</svg>
