<?xml version="1.0" encoding="utf-8"?>
<!-- Generator: Adobe Illustrator 21.1.0, SVG Export Plug-In . SVG Version: 6.00 Build 0)  -->
<svg version="1.1" id="Layer_1" xmlns="http://www.w3.org/2000/svg" xmlns:xlink="http://www.w3.org/1999/xlink" x="0px" y="0px"
	 viewBox="0 0 16 19" style="enable-background:new 0 0 16 19;" xml:space="preserve">
<style type="text/css">
	.st0{fill:#0867BB;}
</style>
<g>
	<g>
		<path class="st0" d="M14.2,15H1.8C1.4,15,1,14.7,1,14.2V4.7c0-0.4,0.4-0.8,0.8-0.8h12.3c0.5,0,0.8,0.4,0.8,0.8v9.5
			C15,14.7,14.6,15,14.2,15z M1.8,4.7C1.8,4.7,1.8,4.7,1.8,4.7l-0.1,9.6c0,0,0,0.1,0.1,0.1h12.3c0,0,0.1,0,0.1-0.1V4.7
			c0,0,0-0.1-0.1-0.1H1.8z"/>
	</g>
	<g>
		<path class="st0" d="M12.5,8.4H3.5c-0.2,0-0.4-0.2-0.4-0.4c0-0.2,0.2-0.4,0.4-0.4h8.9c0.2,0,0.4,0.2,0.4,0.4
			C12.8,8.3,12.7,8.4,12.5,8.4z"/>
	</g>
	<g>
		<path class="st0" d="M12.5,11.4H3.5c-0.2,0-0.4-0.2-0.4-0.4c0-0.2,0.2-0.4,0.4-0.4h8.9c0.2,0,0.4,0.2,0.4,0.4
			C12.8,11.2,12.7,11.4,12.5,11.4z"/>
	</g>
	<g>
		<path class="st0" d="M13.4,4.7H2.6V1.2C2.6,0.5,3.2,0,3.9,0h8.3c0.7,0,1.3,0.5,1.3,1.2V4.7z M3.4,3.9h9.2V1.2
			c0-0.3-0.2-0.5-0.5-0.5H3.9c-0.3,0-0.5,0.2-0.5,0.5V3.9z"/>
	</g>
	<g>
		<path class="st0" d="M12.1,19H3.9c-0.7,0-1.3-0.5-1.3-1.2v-3.5h10.8v3.5C13.4,18.5,12.8,19,12.1,19z M3.4,15.1v2.7
			c0,0.3,0.2,0.5,0.5,0.5h8.3c0.3,0,0.5-0.2,0.5-0.5v-2.7H3.4z"/>
	</g>
</g>
</svg>
