<?xml version="1.0" encoding="utf-8"?>
<!-- Generator: Adobe Illustrator 21.1.0, SVG Export Plug-In . SVG Version: 6.00 Build 0)  -->
<svg version="1.1" id="Layer_1" xmlns="http://www.w3.org/2000/svg" xmlns:xlink="http://www.w3.org/1999/xlink" x="0px" y="0px"
	 viewBox="0 0 12 16" style="enable-background:new 0 0 12 16;" xml:space="preserve">
<style type="text/css">
	.st0{fill:#0867BB;}
</style>
<g>
	<g>
		<path class="st0" d="M10.9,16H1.1C0.5,16,0,15.5,0,14.9V6.8c0-0.6,0.5-1.1,1.1-1.1h9.9c0.6,0,1.1,0.5,1.1,1.1v8.1
			C12,15.5,11.5,16,10.9,16z M1.1,6.6c-0.1,0-0.2,0.1-0.2,0.2v8.1c0,0.1,0.1,0.2,0.2,0.2h9.9c0.1,0,0.2-0.1,0.2-0.2V6.8
			c0-0.1-0.1-0.2-0.2-0.2H1.1z"/>
	</g>
	<g>
		<path class="st0" d="M2.6,6.1l0-1C2.6,3,4.1,1.3,6,1.3S9.4,3,9.4,5.1l0,1l-0.8,0l0-1c0-1.6-1.1-2.9-2.6-2.9S3.4,3.5,3.4,5.1l0,1
			L2.6,6.1z"/>
	</g>
	<g>
		<path class="st0" d="M1.3,6.1l0-0.9C1.3,2.3,3.4,0,6,0c2.6,0,4.7,2.3,4.7,5.2l0,0.9l-0.8,0l0-0.9c0-2.4-1.7-4.4-3.8-4.4
			s-3.8,2-3.8,4.4l0,0.9L1.3,6.1z"/>
	</g>
	<g>
		<path class="st0" d="M6.6,13.4H5.3c-0.1,0-0.3-0.1-0.4-0.2c-0.1-0.1-0.1-0.2-0.1-0.4l0,0l0.3-1.9c-0.3-0.3-0.5-0.7-0.5-1.1
			C4.6,9,5.2,8.3,6,8.3c0.8,0,1.4,0.7,1.4,1.5c0,0.4-0.2,0.9-0.5,1.1l0.3,2c0,0.1,0,0.3-0.1,0.4C6.9,13.3,6.8,13.4,6.6,13.4z
			 M5.5,12.7h0.9l-0.2-1.9c0-0.2,0.1-0.3,0.2-0.4c0.2-0.1,0.3-0.4,0.3-0.6C6.7,9.3,6.4,9,6,9C5.6,9,5.3,9.3,5.3,9.8
			c0,0.3,0.1,0.5,0.3,0.6c0.1,0.1,0.2,0.3,0.2,0.4l0,0L5.5,12.7z"/>
	</g>
</g>
</svg>
