<?xml version="1.0" encoding="utf-8"?>
<!-- Generator: Adobe Illustrator 21.1.0, SVG Export Plug-In . SVG Version: 6.00 Build 0)  -->
<svg version="1.1" id="Layer_1" xmlns="http://www.w3.org/2000/svg" xmlns:xlink="http://www.w3.org/1999/xlink" x="0px" y="0px"
	 viewBox="0 0 10 10" style="enable-background:new 0 0 10 10;" xml:space="preserve">
<style type="text/css">
	.st0{fill:#3982D8;}
	.st1{fill:#246FBA;}
	.st2{fill:#FFFFFF;}
</style>
<g>
	<circle class="st0" cx="5" cy="5" r="5"/>
	<path class="st1" d="M9.5,7.3L7.1,4.4L4,5.3L2.9,7.9l1.3,2.1C4.5,10,4.7,10,5,10C6.9,10,8.6,8.9,9.5,7.3z"/>
	<path class="st2" d="M6.9,4.3H6.7l0-0.4c0-1-0.7-1.8-1.7-1.8S3.3,2.9,3.3,3.9l0,0.4H3.1c-0.1,0-0.3,0.1-0.3,0.3v3.1
		c0,0.1,0.1,0.3,0.3,0.3h3.9c0.1,0,0.3-0.1,0.3-0.3V4.5C7.2,4.4,7.1,4.3,6.9,4.3z M3.9,3.9c0-0.7,0.5-1.2,1.1-1.2s1.1,0.5,1.1,1.2
		l0,0.4H3.9L3.9,3.9z M5.3,6.9C5.3,6.9,5.3,7,5.3,6.9L4.7,7c0,0-0.1,0-0.1-0.1l0.1-0.8c0,0,0,0,0,0C4.7,6,4.6,5.8,4.6,5.7
		c0-0.2,0.2-0.4,0.4-0.4c0.2,0,0.4,0.2,0.4,0.4C5.4,5.8,5.3,6,5.2,6c0,0,0,0,0,0L5.3,6.9z"/>
</g>
</svg>
